<svg xmlns="http://www.w3.org/2000/svg" viewBox="0 0 904.24 962.99"><defs><style>.cls-1{fill:#f2f2f2;}.cls-2{fill:none;stroke:#dedede;stroke-miterlimit:10;stroke-width:15px;}.cls-3{fill:#de8e68;}.cls-4{fill:#fed385;}.cls-5{fill:#56cad8;}.cls-6{fill:#74d5de;}.cls-7{fill:#d37c59;}.cls-8{fill:#fd8369;}.cls-9{fill:#dedede;}</style></defs><title>lifting-colour</title><g id="Layer_2" data-name="Layer 2"><g id="Vector"><path class="cls-1" d="M715.4,140.44c52.1,67.38,60.78,162.69,65.87,250.07s6.8,166.66-14.15,261.4c-21,94.56-64.55,204.41-146.84,254.8-82.29,50.58-203.46,41.71-304.62-3.4C214.5,858.39,133.53,777.23,81.44,681.92,29.54,586.42,6.51,477,50.3,405.23S204.49,299.54,285.84,237.45c81.53-62.1,134-152.31,208.18-177.79C568,34,663.31,73.25,715.4,140.44Z"/><line class="cls-2" x1="114.48" y1="161.68" x2="788.29" y2="161.68"/><line class="cls-2" y1="161.68" x2="28.21" y2="161.68"/><line class="cls-2" x1="876.03" y1="161.68" x2="904.24" y2="161.68"/><path class="cls-3" d="M402.38,480.68c-14-56-56-118-72-137s-59-117-97-168c-11,3-19,7-19,12s12,84,59,168c9.22,16.47,39,147,95,180C394,550.75,402.38,480.68,402.38,480.68Z"/><path class="cls-3" d="M500.38,480.68c14-56,56-118,72-137s59-117,97-168c11,3,19,7,19,12s-12,84-59,168c-9.21,16.47-39,147-95,180C508.81,550.75,500.38,480.68,500.38,480.68Z"/><circle class="cls-3" cx="681.38" cy="161.68" r="27"/><circle class="cls-3" cx="214.38" cy="161.68" r="27"/><path class="cls-3" d="M449.62,436.68c-112,0-130.5,301.5-106,326s204.5,17.5,222,0S568.62,436.68,449.62,436.68Z"/><circle class="cls-3" cx="405.88" cy="352.18" r="13.5"/><circle class="cls-3" cx="496.88" cy="352.18" r="13.5"/><path class="cls-4" d="M552.71,566.79a90.6,90.6,0,0,1-57.17-112c-13.2-11.42-28.43-18.09-45.92-18.09-16.24,0-30.51,6.36-43,17.28a87.29,87.29,0,0,1-55.58,111.39c-21.39,85.22-21,183.76-7.45,197.33,24.5,24.5,204.5,17.5,222,0C575.35,753,575.19,653.37,552.71,566.79Z"/><path class="cls-5" d="M420.24,722c-3.56-8.65-78.41-114.34-194-114.34-12.46,0,62.88,189,62.88,205.92s143.34,42,162.29,42V720.87Z"/><path class="cls-6" d="M220.87,607.61c-11.69,0-21.06,12.9-21.06,29.51,0,89.55,118.14,282,126.83,282h47.59C343.61,816.88,330.68,607.61,220.87,607.61Z"/><path class="cls-5" d="M482.52,722c3.57-8.65,78.42-114.34,194-114.34,12.46,0-62.88,189-62.88,205.92s-143.35,42-162.3,42V720.87Z"/><path class="cls-6" d="M680.07,607.61c11.69,0,21.06,12.9,21.06,29.51,0,89.55-118.14,282-126.83,282H526.71C557.33,816.88,570.25,607.61,680.07,607.61Z"/><polygon points="372.63 962.99 374.23 919.09 326.64 919.09 263.69 950.3 263.69 962.99 372.63 962.99"/><polygon points="528.31 962.99 526.71 919.09 574.3 919.09 637.24 950.3 637.24 962.99 528.31 962.99"/><path class="cls-7" d="M474.38,468.68c0,13-46,13-46,0v-70h46Z"/><path class="cls-8" d="M502.82,347.24c3.49.25,14.56-20.64,14.56-47.56,0-7-4-42-21-42-5,0-8,15-7,19,0-8-19.39-54-47-54-11,0-13,13-13,17,0,12,1,24,5,31-4-6-12.07-21-27-21-8,0-15,3.41-15,8,0,12.22,10,23,13,26-3-2-6.86-4-16-4-6.26,0-10,10-10,15,0,22.31,10.15,47.76,21.5,50.77s66.31-36.67,66.31-36.67S490.24,346.34,502.82,347.24Z"/><ellipse class="cls-3" cx="451.38" cy="350.68" rx="49.5" ry="60.5"/><path class="cls-8" d="M500.88,338.68c-5.81-1-69.6-19.66-79.14-42.91s31-12.12,31-12.12l42.13,17.89Z"/><rect class="cls-9" x="64.86" width="49.61" height="323.37"/><rect class="cls-9" x="788.29" width="49.61" height="323.37"/><rect class="cls-9" x="27.41" y="68.06" width="34.36" height="187.26"/><rect class="cls-9" x="841.78" y="68.06" width="34.36" height="187.26"/></g></g></svg>