<svg xmlns="http://www.w3.org/2000/svg" viewBox="0 0 552.17 494.16"><defs><style>.cls-1{fill:#f2f2f2;}.cls-2{fill:#d37c59;}.cls-3{fill:#de8e68;}.cls-4{fill:#fed385;}.cls-5{fill:#fd8369;}.cls-6,.cls-7,.cls-9{fill:none;stroke-linecap:round;}.cls-6{stroke:#d14d37;stroke-linejoin:round;}.cls-7{stroke:#3a3a3a;stroke-width:2px;}.cls-7,.cls-9{stroke-miterlimit:10;}.cls-8{fill:#3a3a3a;}.cls-9{stroke:#56cad8;stroke-width:7px;}</style></defs><title>dog-colour</title><g id="Layer_2" data-name="Layer 2"><g id="vector"><path class="cls-1" d="M490.92,48.71c27.69,45.84,8.21,125.07,10.07,192.23S526,363.09,513,408s-62.26,79.75-111.81,85.32-99.09-18-166.4-27.69-152.48-5-197-42.92S-10.65,304.53,19.29,246.9,113.08,154,167.8,113,268.35,24.73,328.5,7.38,463.36,2.74,490.92,48.71Z"/><path class="cls-2" d="M397.62,330.82c-.09,4.63-12.73,97.93-12.73,97.93l-14.57,10.83h50.92s9.68-44.79,42.94-77.67c1.9-5-26.65-27.19-26.65-27.19Z"/><path class="cls-2" d="M163.69,298.94q-13.11-.22-26.84-.23c-6.63,0-13,.74-13,2.46s10.06,26.51,11.29,27.73,13.5,2.81,13.5,9.82c0,3.44-1.26,17.68-16.94,17.68-20.63,0-63.82-70.61-63.82-93,6.87-2.7,63.33-13.78,63.33-13.78"/><path class="cls-3" d="M260.6,304.26c192,18.83,246.88,81.22,246.88,119.46,0,3.14-15.15,13.49-15.15,15.86h55.84c1-3,4-29,4-59,0-92.23-84.07-188-102-188-6,0-23.4,6-77,6-277.09,0-153.08-144-255-144-33.12,0-51.29,42.83-66.75,42.83-3.93,0-30.44-4.66-32.9-4.66s-11,3.68-11,11.78c0,62.85,54.42,66.24,77.57,80.77,11.62,7.29,39,53.76,46.15,64.28,9.91,16,115.21,179.85,115.21,179.85l-15,10.15h62.8L260.6,304.26"/><path class="cls-4" d="M124,81.73c6.73-2.09,44.54-3.71,62.41,4.87,0,36-9.38,85.13-39.67,81.91C120.52,165.72,106.83,123.49,124,81.73Z"/><path class="cls-5" d="M59.73,144c3,5.49,26.92,40.13,42.88,34,10.71-4.12-3-36.84-9.17-44.38C89.58,135.68,70.58,142.93,59.73,144Z"/><path class="cls-6" d="M78.91,139.7c1.61,2.86,4.1,7.39,8.2,13.41"/><path class="cls-7" d="M9.79,125.14c11.24,19.4,46.84,28.47,87.05,6.71"/><ellipse class="cls-8" cx="20.56" cy="93.76" rx="8.05" ry="3.61"/><ellipse class="cls-8" cx="88.09" cy="89.7" rx="4.05" ry="7.66"/><path class="cls-3" d="M476.37,222.27c28.73,0,61.25-48.57,61.25-72.44,0-49.11-44.76-67.11-59.92-67.11-34,0-42.6,33.83-42.6,37s1.39,7.61,2.15,7.61,5.39-2.39,8.55-2.39c29.33,0,32.11,22.29,32.11,25.85,0,29.07-27.87,43.38-32.55,43.38S465.16,222.27,476.37,222.27Z"/><path class="cls-9" d="M110.46,217.2c11.42-3.73,62.76-27.46,88.24-63"/></g></g></svg>