<?xml version="1.0" encoding="utf-8"?>
<!-- Generator: Adobe Illustrator 25.2.3, SVG Export Plug-In . SVG Version: 6.00 Build 0)  -->
<svg version="1.1" id="Layer_1" xmlns="http://www.w3.org/2000/svg" xmlns:xlink="http://www.w3.org/1999/xlink" x="0px" y="0px"
	 viewBox="0 0 787 544" style="enable-background:new 0 0 787 544;" xml:space="preserve">
<style type="text/css">
	.st0{fill:#FFFFFF;stroke:#C2D9F0;stroke-miterlimit:10;}
	.st1{fill:#FFFFFF;stroke:#F7C689;stroke-miterlimit:10;}
	.st2{fill:#4B4065;}
	.st3{fill:#C2D9F0;}
	.st4{fill:#FFFFFF;}
	.st5{opacity:0.26;fill:#495894;enable-background:new    ;}
	.st6{opacity:0.46;fill:#4B4065;enable-background:new    ;}
	.st7{fill:#B9C6E4;}
	.st8{fill:none;stroke:#4B4065;stroke-miterlimit:10;}
	.st9{opacity:0.45;fill:#EF749B;enable-background:new    ;}
	.st10{fill:#FFFFFF;stroke:#FBD7AD;stroke-miterlimit:10;}
	.st11{fill:#F7C689;}
	.st12{fill:none;stroke:#F7C689;stroke-miterlimit:10;}
	.st13{opacity:0.85;fill:none;stroke:#F27932;stroke-miterlimit:10;enable-background:new    ;}
	.st14{clip-path:url(#XMLID_3_);fill:#4B4065;}
	.st15{clip-path:url(#XMLID_3_);fill:#B9C6E4;}
	.st16{opacity:0.21;clip-path:url(#XMLID_3_);fill:#495894;enable-background:new    ;}
	.st17{clip-path:url(#XMLID_3_);fill:#F27932;}
	.st18{clip-path:url(#XMLID_3_);fill:#FFFFFF;}
	.st19{clip-path:url(#XMLID_3_);fill:none;stroke:#4B4065;stroke-width:1.5129;stroke-miterlimit:10;}
	.st20{clip-path:url(#XMLID_3_);fill:#4B4065;stroke:#4B4065;stroke-width:0.3782;stroke-linejoin:round;}
	.st21{clip-path:url(#XMLID_3_);fill:none;stroke:#ED4F2E;stroke-width:1.5129;stroke-miterlimit:10;}
	.st22{opacity:0.46;fill:#EF749B;enable-background:new    ;}
	.st23{fill:#495894;}
</style>
<polyline class="st0" points="47.6,271.8 47.6,166.1 309.6,166.1 309.6,318.8 172.4,318.8 "/>
<rect x="74.2" y="138.4" class="st1" width="262" height="152.6"/>
<path class="st2" d="M257.4,141.5c2.3,5.7,0.7,12.2-4,16.1c-2.5,2-5.9,3-8.8,1.7s-4.3-4.7-4.9-7.9c-0.9-4.8-1.1-14,4-16.9
	C248.8,131.6,255.4,137,257.4,141.5z"/>
<path class="st3" d="M191.9,229.8l8-66l-1.9-2c-8.2-8.4-8-21.9,0.4-30c4.1-4,9.6-6.2,15.4-6l15.8,0.4c10.9,0.3,19.8,8.8,20.7,19.6
	c0.2,3,0.4,5.9,0.6,8.9c0,1.3,0,2.5,0.1,3.8c0.3,1.2,5.9,4.8,4.7,8.6c-0.5,1.1-1.2,2-2.1,2.7c-2,1.9-1.8,3.8-1.7,6.3
	c0,2.7,0,5.4-0.1,8.1s0.2,7.1-1.6,9.3c-4.5,5.5-15.6,4.4-17.9,3.5l6.1,44.2C238.3,241.2,198.3,257.6,191.9,229.8z"/>
<path class="st2" d="M233.3,151.7c3.2-4.5,7.8-4.8,11.7-0.7C241.1,151.3,237.2,151.5,233.3,151.7z"/>
<path class="st2" d="M233.7,151.9c1.2-1.9,3.1-3.1,5.3-3.4c2.2,0.1,4.3,1.1,5.7,2.8l0.3-0.6c-3.9,0.2-7.8,0.5-11.7,0.7
	c-0.5,0-0.5,0.8,0,0.8c3.9-0.2,7.8-0.5,11.7-0.7c0.2,0,0.4-0.2,0.4-0.4c0-0.1,0-0.2-0.1-0.2c-1.7-1.7-3.9-3.1-6.4-3
	c-2.4,0.3-4.5,1.7-5.9,3.7C232.7,152,233.4,152.3,233.7,151.9z"/>
<path class="st4" d="M242.5,164.7l2.6-5.4c-3.4-2.4-7.8-2.8-11.6-1.1C234,163.3,238.5,164.7,242.5,164.7z"/>
<path class="st2" d="M245.1,159.4c-1-0.6-2-1.1-3-1.6c-1.4,0.2-2.7,0.9-3.6,2c-0.8,1.2-1.1,2.6-1,4c1.6,0.7,3.3,1,4.9,0.9
	L245.1,159.4z"/>
<path class="st2" d="M191.8,178.9c-9.2-6.5-14.9-16.9-14.3-28.3c0.1-1.9,0.2-7.5,1.8-8.8s5.8,0.1,8-0.9c2.4-1.1,1.5-4,1.9-6.2
	c0.6-3.5,2.8-6.6,6-8.3c3.6-1.8,7.6-1.4,11.4-0.9c3.4,0.3,6.8-0.2,10-1.5c1.3-0.5,6.6-1.9,7.9-2.6c3.1-1.7,0-4.7,2.4-6.8
	c1.7-1.4,4.4-1.7,6.4-1.7c4.2-0.2,8.3,1.2,11.5,3.8c9.1,7.9,4.4,19.6,3.2,21.6c0,0-23.9,3.6-25.3,4.2c-4.1,1.6-4.4,7.1-2.7,10.6
	c0.7,1.4,1.7,2.6,2.4,3.9c0.9,1.3,1.3,2.8,1.1,4.4c-0.6,3.6-4.6,2.2-7.1,3.4c-2.8,1.4-5.3,3.2-7.4,5.4c-2.5,2.5-4.7,5.4-7.6,7.6
	C198.8,180,194.9,181.1,191.8,178.9z"/>
<path class="st5" d="M221.4,177.9c-4.4,7.1-16.5,12-24.9,12.7l1.2-10.8C204.8,178.7,214.4,179.1,221.4,177.9z"/>
<path class="st4" d="M197.9,161.8l6.3-37.8l13-0.5c0,0-2.7,37-2.8,36.5S197.9,161.8,197.9,161.8z"/>
<path class="st6" d="M204.6,144.2c-1.3,0-2.6,0.1-3.8,0.3l-2.9,17.3c0,0,16.3-2.2,16.4-1.8c0,0.2,0.5-5.2,1-11.9
	C212.3,145.7,208.5,144.3,204.6,144.2z"/>
<path class="st7" d="M233.7,207.5c-9.2-2.5-14.8-9.5-19.4-17.9c5.5,3.5,11.7,5.4,17.9,7.4L233.7,207.5z"/>
<circle class="st4" cx="208.1" cy="166.1" r="17.6"/>
<circle class="st0" cx="208.1" cy="166.1" r="10.4"/>
<path class="st8" d="M221.4,177.9c8.1,2.2,16.4,5,24.4,7.2c3,0.8,6.1,1.6,9.1,1.1s6-2.8,6.3-5.9"/>
<circle class="st8" cx="261.4" cy="177.8" r="3"/>
<circle class="st9" cx="232.6" cy="174.8" r="7.4"/>
<polygon class="st10" points="399.4,117.9 292.3,117.9 292.3,179.8 292.3,183.3 292.3,210.6 323.3,183.3 399.4,183.3 "/>
<circle class="st11" cx="327.1" cy="148.9" r="4.6"/>
<circle class="st11" cx="347.5" cy="148.9" r="4.6"/>
<circle class="st11" cx="367.8" cy="148.9" r="4.6"/>
<polygon class="st11" points="292.3,210.6 322.8,198 336.2,198 336.2,183.3 323.3,183.3 "/>
<line class="st12" x1="90.8" y1="168.4" x2="178.6" y2="168.4"/>
<path class="st11" d="M246.5,291l-9.6-68.1c0,0-49.1-12.2-50.3-10.8S158.9,291,158.9,291H246.5z"/>
<path class="st4" d="M251.2,175.1h-8.9c0.7,3.9,3.4,7,7.3,7.1L251.2,175.1z"/>
<path class="st11" d="M235.6,219l-23.5-6.2l-17.2-4.6c-3.7-1-8.2-2.9-12-3.1c-8.3-0.5-16.5,6.2-21.6,12.2c-6,6.8-9.6,15.3-10.4,24.3
	c-0.5,5.2,0.4,10.5,2.7,15.2c2.4,4.6,6.9,8.3,12,9.1c6.8,1,13.4-3.2,17.3-8.8c3.9-5.6,5.5-12.4,6.9-19.1c0.4-2.2,0.9-4.4,2.3-6.2
	c3.5-4.5,11.1-1.4,15.7-1.2c9.2,0.5,21,2.1,29.9-1.2C237.5,229.3,236.3,221.6,235.6,219z"/>
<path class="st13" d="M168,264.7c3.7-10.2,7.8-20.6,15.7-28.1c7.9-7.4,20.5-11,29.7-5.2c8.6,5.3,11.3,16.6,11.4,26.7
	c0.1,10.1-1.9,20.4,0.4,30.2"/>
<polyline class="st0" points="738.4,417.8 738.4,312.1 476.4,312.1 476.4,464.8 613.6,464.8 "/>
<g>
	<defs>
		<rect id="XMLID_1_" x="449.8" y="284.4" width="262" height="152.6"/>
	</defs>
	<use xlink:href="#XMLID_1_"  style="overflow:visible;fill:#FFFFFF;"/>
	<clipPath id="XMLID_3_">
		<use xlink:href="#XMLID_1_"  style="overflow:visible;"/>
	</clipPath>
	<path class="st14" d="M537.2,369.7c-5.4-3.6-6.8-10.8-3.3-16.1c0.8-1.2,2-2.4,3.2-3.3l3-1.9c1.5-0.8,2.8-2.1,3.8-3.5
		c2.1-3.8-0.3-9.4-0.3-13.6c0.1-4.7,1.4-9.3,3.9-13.3c6.2-9.8,18.9-15.4,29.8-18.2c12.4-3.2,25.4-2,37.1,3.1
		c7.1,3.3,13.7,8.3,17,15.5c1.8,4.3,2.4,9,1.5,13.8c-1,5.5-4,7.9-6.7,12.3c-0.9,1.4-1.2,3.2-0.7,4.8c0.7,2.3,2.9,3.4,5,4.6l10.4,5.6
		c5.6,3,7.7,10,4.7,15.8c-0.9,1.5-1.9,2.9-3.3,3.9c-4.1,3-8.6,5.2-13.4,6.8c-10,3.3-20.7,3.8-31.2,4.1
		C590.8,390.3,558.3,383.6,537.2,369.7z"/>
	<path class="st15" d="M561.8,398.5l10.7-41.6l-3.7-0.5c-6.8-0.8-11.7-7-11-13.8l2.1-19.4c0.4-2.1,1-4.1,1.7-6
		c3.9-10.4,11.3-15.7,21.3-16.9c9.3-1.1,20.3,0,29.3,7.3c19.6,15.8-0.4,34.7-11.7,41.4l2.1,32.7l-41.2,39.3L561.8,398.5z"/>
	<path class="st14" d="M600.8,354c-0.5-3.9-0.3-8.4-0.7-12.3c2.8-0.4,5.5-1.5,7.8-3.2c2.3-1.7,3.6-4.4,3.3-7.4
		c-0.4-2.8-2.8-5.1-5.6-5.5c-1.5-0.1-2.9,0.1-4.1,0.8c-1.5,0.8-1.4,1.9-2.5,2.9c-0.4,0.5-1.2,0.9-2,0.7c-0.7-0.3-1.4-0.9-1.6-1.5
		c-0.2-0.8-0.2-1.6-0.2-2.3c0-4-0.9-7.8-2.6-11.4c-7.6-16-29.3-10.8-32.4,0.9c2.9-7,8.5-12.5,15.7-14.9c7-2.3,14.5-2.8,21.8-1.6
		c6.8,0.9,13.8,2.8,19,7.1c7.8,6.5,10.3,18,7.2,27.6C620.8,343.8,610.2,350.5,600.8,354z"/>
	<path class="st15" d="M546.4,489.2l-20.8,8.1l-19.6-2.3l-12.7-4.6c0,0-5.9,4.8,14.3,16.4c1.1,0.7,1.3,1.9,0.8,3.1
		c-0.3,0.6-0.9,0.9-1.6,1.1l-19.2,3.6l-11.9,2c-1.7,0.3-2.8,2-2.5,3.6c0.2,0.6,0.4,1.3,0.9,1.7l0,0l19.8-0.5l35.6-0.7l17.6-4.5"/>
	<path class="st16" d="M572.2,356.9l14.2-0.5c-5.6,4.8-12.1,9.8-17.7,14.7"/>
	<path class="st17" d="M567.9,375.5l-17.9-1.5c-7.1,0-13.9,4.4-18.4,9.9L494,428.8l-49.7-8.9l-1.4,36.3l60.9,8.5
		c6.5,0.9,13-1.5,17.3-6.6l44.4-52.3"/>
	<path class="st17" d="M559.7,395.1l-12,17.1c-3.7,5.5-3.7,12.7,0.3,18l10.5,14l-1.1,20.7c-0.5,1.8-0.7,10.9-0.7,10.9l74,10
		l-21.9-105.2l-6.2-0.8L567,414.2l1.1-38.5"/>
	<path class="st17" d="M608.7,380.5l22,13c4.4,2.6,7.5,7.2,8.1,12.2l11,80.1c1.1,7.6-3.6,14.9-11.1,17.1l-92,32.2l-11-43.8l14.7-4
		l59.8-20.6l-9.9-51.1"/>
	<path class="st18" d="M590.1,328c-3.1-5-9.6-6.5-14.6-3.2c-1.7,1.1-3.1,2.5-3.9,4.4C577.6,332.2,584.7,331.8,590.1,328z"/>
	<path class="st19" d="M571.7,329c2.6-5.2,8.9-7.5,14.1-4.8c1.8,0.9,3.3,2.3,4.4,3.9"/>
	<path class="st19" d="M566.1,328.1l-2.8,2.6c-0.7,0.6-0.8,1.9,0,2.6c0.1,0.2,0.3,0.2,0.3,0.2c0.8,0.6,1.7,1.1,2.5,1.5"/>
	<path class="st14" d="M582.2,328.6c0.5-1.8,0.3-3.6-0.4-5.5c-0.4-0.1-0.9,0-1.4-0.1c-3.9,0.2-7.2,2.5-8.9,5.9
		c2.8,1.6,6,2.3,9.3,2.1C581.6,330.3,582,329.4,582.2,328.6z"/>
	<path class="st20" d="M589.1,318.6c-3.3-4.1-9.3-4.9-13.4-1.6c0,0,0,0-0.2,0.1C580.3,317.6,584.4,318,589.1,318.6z"/>
	<path class="st18" d="M567.4,343.1c4.9,0.1,6.5-1.9,10.4-4.9l-13.4-1.3l-1,5.5L567.4,343.1z"/>
	<path class="st21" d="M559.7,395.1l-12,17.1c-3.7,5.5-3.7,12.7,0.3,18l10.5,14l-1.9,31.8"/>
	<path class="st14" d="M558.9,327.3c0.7-0.5,1.3-1.2,1.6-2c0.4-1.2,0.3-2.6-0.3-3.6c0.1-0.6,0.2-1,0.4-1.6c1.4,1.5,1.8,3.7,1.1,5.7
		c-0.6,1.4-1.7,2.5-3.1,3C558.6,328.3,558.8,327.9,558.9,327.3z"/>
	<polyline class="st21" points="550.6,487.3 610.4,466.7 600.7,415.6 	"/>
	<use xlink:href="#XMLID_1_"  style="overflow:visible;fill:none;stroke:#F7C689;stroke-miterlimit:10;"/>
</g>
<polygon class="st10" points="386.6,263.9 493.7,263.9 493.7,325.8 493.7,329.3 493.7,356.6 462.7,329.3 386.6,329.3 "/>
<circle class="st11" cx="458.9" cy="294.9" r="4.6"/>
<circle class="st11" cx="438.5" cy="294.9" r="4.6"/>
<circle class="st11" cx="418.2" cy="294.9" r="4.6"/>
<polygon class="st11" points="493.7,356.6 463.2,344 449.8,344 449.8,329.3 462.7,329.3 "/>
<line class="st12" x1="695.2" y1="314.4" x2="654.5" y2="314.4"/>
<rect x="451.3" y="53.1" class="st22" width="145.8" height="145.8"/>
<path class="st3" d="M84.7,343.3h79c11.6,0,21.1,9.4,21.1,21.1v67c0,11.6-9.4,21.1-21.1,21.1h-79c-11.6,0-21.1-9.4-21.1-21.1v-67
	C63.6,352.7,73,343.3,84.7,343.3z"/>
<path class="st4" d="M519.7,159.9l1.1-25.2l-21.2,13.5l-6.3-10.8l22.3-11.5l-22.3-11.5l6.3-10.8l21.2,13.8l-1.1-25.2h12.4l-1.1,25.2
	l21.2-13.8l6.3,10.8L536,125.9l22.5,11.5l-6.3,10.8L531,134.6l1.1,25.2L519.7,159.9L519.7,159.9z"/>
<polygon class="st23" points="109.4,379 109.4,415.8 125.2,405 140.9,415.8 140.9,379 "/>
<path class="st2" d="M599.9,287.5c-0.7,2.3-0.1,4.9,1.6,6.7c5.3,6.6,21.5,14.6,20.7,0.2C621.5,285,604.1,277,599.9,287.5z"/>
<circle class="st9" cx="591.8" cy="340" r="7.4"/>
<path class="st11" d="M528.7,245.1c2.5-0.6,4.8-1.6,6.9-3c-2.2-1.3-4.5-2.3-6.9-3c-2.5-0.7-4.5-2.6-5.2-5.2c-0.6-2.5-1.6-4.8-3-6.9
	c-1.3,2.2-2.3,4.5-3,6.9c-0.7,2.5-2.6,4.5-5.2,5.2c-2.5,0.6-4.9,1.6-7.1,3c2.2,1.3,4.5,2.3,7.1,3c2.5,0.7,4.5,2.6,5.2,5.2
	c0.6,2.5,1.6,4.8,3,6.9c1.3-2.2,2.3-4.5,3-6.9C524.2,247.7,526.1,245.7,528.7,245.1z"/>
<path class="st11" d="M241.7,419.1c2.5-0.6,4.8-1.6,6.9-3c-2.2-1.3-4.5-2.3-6.9-3c-2.5-0.7-4.5-2.6-5.2-5.2c-0.6-2.5-1.6-4.8-3-6.9
	c-1.3,2.2-2.3,4.5-3,6.9c-0.7,2.5-2.6,4.5-5.2,5.2c-2.5,0.6-4.9,1.6-7.1,3c2.2,1.3,4.5,2.3,7.1,3c2.5,0.7,4.5,2.6,5.2,5.2
	c0.6,2.5,1.6,4.8,3,6.9c1.3-2.2,2.3-4.5,3-6.9C237.2,421.7,239.1,419.7,241.7,419.1z"/>
<circle class="st11" cx="255.5" cy="392.5" r="4.5"/>
</svg>
