<?xml version="1.0" encoding="utf-8"?>
<!-- Generator: Adobe Illustrator 22.1.0, SVG Export Plug-In . SVG Version: 6.00 Build 0)  -->
<svg version="1.1" id="Vector" xmlns="http://www.w3.org/2000/svg" xmlns:xlink="http://www.w3.org/1999/xlink" x="0px" y="0px"
	 viewBox="0 0 1200 1200" style="enable-background:new 0 0 1200 1200;" xml:space="preserve">
<style type="text/css">
	.st0{fill:#DE8E68;}
	.st1{fill:#56CAD8;}
	.st2{fill:#74D5DE;}
	.st3{fill:#FCC486;}
	.st4{fill:#FED385;}
	.st5{fill:#D37C59;}
	.st6{fill:#DFDFDF;}
	.st7{fill:#F2F2F2;}
	.st8{fill:#FED892;}
	.st9{fill:#FFFFFF;}
	.st10{font-family:'SofiaProBlack';}
	.st11{font-size:108.2px;}
	.st12{fill:none;stroke:#000000;stroke-width:2.5;stroke-linecap:round;stroke-linejoin:round;stroke-miterlimit:10;}
</style>
<title>Artboard 1</title>
<rect x="511.3" y="993.4" class="st0" width="25.5" height="17.5"/>
<rect x="673.5" y="993.4" class="st0" width="29.8" height="17.5"/>
<path class="st1" d="M672.4,597.5c0.7,13.2,31.8,395.9,31.8,395.9h-31.8L589.7,706c0,0,21.5-115,23-114.7
	C619.8,593.1,658.7,600,672.4,597.5z"/>
<path class="st2" d="M626,594.2l-85.7,402.3h-30.7c0,0-2.7-440.9,0-440.9C538.4,567.8,592.8,587.8,626,594.2z"/>
<path class="st0" d="M694.4,375.2c4.9,2.1,31.1,23.8,42.1,38.1c8.2-6.1,101.8-83.8,103.7-88.1c3.7-2.1,11.6,9.8,0,19.5
	c7.9-0.3,54.6-1.5,54.6,0s10.1,5.8-58.5,16.8c-9.1,11-91.5,107.9-104.9,107.9s-68-53-70.3-62.5S694.4,375.2,694.4,375.2z"/>
<path class="st3" d="M623.1,332.1C601.7,352,640.9,412,652,414.6c14.1,3.4,46.3-23.3,53.2-41.8C708.3,364.1,640.7,315.8,623.1,332.1
	z"/>
<path class="st4" d="M584.7,303.1c-119,0-92,229.7-84.4,245.4s160,61.3,172,49S706.4,303.1,584.7,303.1z"/>
<path class="st5" d="M605.2,272.2h-36v52.3c0,6.7,36,6.7,36,0V272.2z"/>
<ellipse class="st0" cx="586.8" cy="222.2" rx="41" ry="68.8"/>
<path d="M580,138c-20.7,0-48.1,10-68,10c-18,0-50.7-13-68-13c-11,0-63,5.1-63,47c0,18.9,20,37,24,42s11.3,33,30,33
	c26.1,0,44.1-19,68-19c16.5,0,20.8,4,29,4c6,0,15-2.8,15-3c0-3.1-0.6-29,3-33.2c5-6,68.7,2.9,68.7-18.2c4.5,4,8.7,21,8.7,24.5
	c2.9-3,13.7-16,13.7-30C641,169.3,632,138,580,138z"/>
<rect x="441.4" y="513.9" transform="matrix(0.9972 -7.463064e-02 7.463064e-02 0.9972 -41.7723 38.1687)" class="st6" width="96.8" height="128.3"/>
<rect x="451.5" y="523.2" transform="matrix(0.9972 -7.463064e-02 7.463064e-02 0.9972 -42.4386 38.9452)" class="st7" width="96.8" height="128.3"/>
<ellipse class="st0" cx="494.2" cy="628.1" rx="19.1" ry="26.9"/>
<path class="st0" d="M482.1,402.5c-2.5,5.6-19,68.1-15.5,121.5s12.6,83.5,12.6,87.7s30.6,2.5,30.6,0s-7.9-78.5-6.2-92
	s24.6-91.6,24-101.2S482.1,402.5,482.1,402.5z"/>
<path class="st8" d="M527,335.9c-27.3-8.7-59.6,53.6-56.5,64.4c3.9,13.6,42,28.4,61.1,25.4C540.6,424.2,549.4,343.1,527,335.9z"/>
<polygon points="510,1006.9 510,1014.6 479.6,1071.6 499.4,1071.6 539,1035.7 539,1006.9 "/>
<polygon points="672.5,1005.7 672.5,1034.6 757,1034.6 757,1023.2 703.4,1005.7 "/>
<circle class="st6" cx="348" cy="365.1" r="68.3"/>
<polygon class="st6" points="445.1,315.5 363,332 383.1,371.9 "/>
<polygon class="st6" points="715.3,211.5 796.1,233.8 796.1,189.1 "/>
<text transform="matrix(1 0 0 1 325.59 402.02)" class="st9 st10 st11">?</text>
<rect x="746.1" y="153.4" class="st6" width="156" height="108.6"/>
<circle class="st9" cx="788.8" cy="207.7" r="7.5"/>
<circle class="st9" cx="824" cy="207.7" r="7.5"/>
<circle class="st9" cx="859.3" cy="207.7" r="7.5"/>
<path class="st12" d="M527.1,529.5c0.3,3.4-2.3,6.3-5.7,6.6l0,0c-3.4,0.3-6.3-2.3-6.6-5.7l-1.5-20.3c-0.3-3.4,2.3-6.3,5.7-6.6l0,0
	c3.4-0.3,6.3,2.3,6.6,5.7l0.8,10.8"/>
</svg>
