<svg xmlns="http://www.w3.org/2000/svg" viewBox="0 0 521.4 1252.69"><defs><style>.cls-1,.cls-13,.cls-14,.cls-5{fill:none;}.cls-1{stroke:#424d76;}.cls-1,.cls-5{stroke-linecap:round;}.cls-1,.cls-12,.cls-14,.cls-2,.cls-3{stroke-miterlimit:10;}.cls-1,.cls-2,.cls-3{stroke-width:5px;}.cls-10,.cls-12,.cls-2{fill:#fff;}.cls-14,.cls-2,.cls-3{stroke:#ffb000;}.cls-3{fill:#ffd880;}.cls-4{fill:#ffb000;}.cls-13,.cls-5{stroke:#fff;stroke-linejoin:round;}.cls-5{stroke-width:4px;}.cls-6{fill:#424d76;}.cls-7{fill:#c36f0b;}.cls-8{fill:#6562cf;}.cls-9{fill:#eaeaff;}.cls-11{fill:#b65a18;}.cls-12{stroke:#6562cf;stroke-width:7px;}.cls-13{stroke-width:6px;}.cls-14{stroke-width:3px;}</style></defs><g id="Layer_2" data-name="Layer 2"><g id="Слой_1" data-name="Слой 1"><g id="_1" data-name="1"><g id="CHAIR"><line class="cls-1" x1="218.59" y1="1114.59" x2="374.93" y2="1114.59"/><line class="cls-1" x1="164.38" y1="771.7" x2="439.14" y2="1218.8"/><line class="cls-1" x1="429.14" y1="771.7" x2="154.38" y2="1218.8"/><path class="cls-2" d="M486.06,734.51c0,3.81-8.53,7.39-23.52,10.5-32.25,6.7-94.41,11.24-165.78,11.24S163.23,751.71,131,745c-15-3.11-23.52-6.69-23.52-10.5,0-12,84.75-21.74,189.3-21.74S486.06,722.5,486.06,734.51Z"/><path class="cls-3" d="M486.06,734.51v21c0,12-84.76,21.74-189.3,21.74s-189.3-9.73-189.3-21.74v-21c0,3.81,8.53,7.39,23.52,10.5,32.25,6.7,94.4,11.24,165.78,11.24S430.29,751.71,462.54,745C477.53,741.9,486.06,738.32,486.06,734.51Z"/></g><g id="CHARACTER"><g id="LEGS"><path class="cls-4" d="M266.23,1064.52c8.37,4.78,26.28,5.31,29.47,17.58s-14.34,60.85-11.55,78,2.54,53.77-25.88,57.73c-31.45,4.38-55.34-6.37-55.34-18.32S221.25,1174,224,1153.7s10-64.1,10-64.1Z"/><path class="cls-5" d="M226.12,1118s13.27-11.5,33.62,0"/><path class="cls-5" d="M223.12,1132s13.27-11.5,33.62,0"/><path class="cls-5" d="M220.12,1146s13.27-11.5,33.62,0"/><path class="cls-4" d="M373.48,1124.82c-5.32,7.78-36,26.89-34.39,35.65s29.86,34.24,31.85,47.77-.79,33.84,11.15,39.82,75.25,6.37,85.6,0-.8-26.68-11.95-31.06-41-54.14-39.28-84.8Z"/><path class="cls-5" d="M429.57,1160.75s-13.27-11.5-33.62,0"/><path class="cls-5" d="M434.57,1174.75s-13.27-11.5-33.62,0"/><path class="cls-5" d="M440.57,1188.75s-13.27-11.5-33.62,0"/><path class="cls-6" d="M183.25,586.83S0,659.79,0,722.56c0,111.93,156.27,318,188.25,314.91s53.51-28.88,52.28-42.41-59-187.64-100.28-246.69c0,0,126.12-32,142.73-32.6s102.11,45.52,103.34,47.36-44.2,126.56-17.84,289.1c3.69,22.76,72.58,27.68,79.35,18.46s83-330.32,72.58-356.15-98-96.53-150.93-124.71C331.34,569.53,183.25,586.83,183.25,586.83Z"/><path class="cls-7" d="M426.69,1103.34c-1.14,3.52-6.55,20.09-10.23,28.86-3.52,8.37-47.37,5.53-43-7.39,3.73-11,3.79-26,3.72-30.22C384.36,1097.44,404.72,1104.59,426.69,1103.34Z"/><path class="cls-8" d="M427.53,1103.29l12.25-29.18s-39.77,4.94-66.3-13.39l1,32.72S402.06,1106,427.53,1103.29Z"/><path class="cls-7" d="M248.15,1030.09s14.5,30.05,18.08,34.43-16.32,26.67-32.24,25.08l-25.44-34.29S235.84,1050.21,248.15,1030.09Z"/><path class="cls-8" d="M238.91,1003.73l10.24,26.36s-15.89,22.05-42.6,26.22l-18.3-18.84S222.52,1033.34,238.91,1003.73Z"/></g><g id="T-SHIRT"><path class="cls-9" d="M356.33,211c16.18,11.89,60.14,32.68,87.5,51.83,22.07,15.45,41.76,83,41.76,83s-30.73,31.34-82.35,43.63c0,0-29.5,91-40.56,197.28,0,0-94.65,35-180.07,0,0,0-34.42-194.82-38.72-196s-68.08-20.75-89-52.1c0,0,24.67-71.07,58.3-85,36.54-15.14,85.23-35.89,102.17-45C224,203.92,356.33,211,356.33,211Z"/><path class="cls-10" d="M130.18,246.49,58.44,343.27c-.78-.93-1.53-1.87-2.22-2.83l67.71-91.32Z"/><path class="cls-10" d="M165.26,231.57l-92.65,125c-.93-.71-1.84-1.42-2.73-2.14l89-120.08Z"/><path class="cls-10" d="M201.11,215.59,88.74,367.16c-1-.58-2-1.16-3-1.77L194.53,218.63h0C196.84,217.57,199,216.56,201.11,215.59Z"/><path class="cls-10" d="M231.43,207.07,106.09,376.13c-1.06-.49-2.12-1-3.19-1.51L227,207.19C228.4,207.14,229.87,207.09,231.43,207.07Z"/><path class="cls-10" d="M255.39,207.12l-131,176.77L121,382.58,251.13,207.06Z"/><path class="cls-10" d="M279,207.71,143.42,390.54c-.69-.21-1.89-.58-3.5-1.1L274.74,207.59h0C276.15,207.62,277.55,207.66,279,207.71Z"/><path class="cls-10" d="M302.35,208.54,150.08,413.91c-.33-1.56-.65-3.06-1-4.5l149.05-201Z"/><path class="cls-10" d="M325.62,209.52,155.29,439.27c-.31-1.55-.61-3.08-.91-4.58L321.45,209.33Z"/><path class="cls-10" d="M348.81,210.62,160.29,464.91c-.3-1.54-.6-3.09-.89-4.62L344.65,210.42Z"/><path class="cls-10" d="M367.28,218.1,165.15,490.73c-.28-1.55-.57-3.1-.86-4.65l200-269.79C365.25,216.88,366.25,217.48,367.28,218.1Z"/><path class="cls-10" d="M384.15,227.71,170,516.62c-.29-1.54-.57-3.09-.86-4.66L381.09,226C382.1,226.58,383.12,227.15,384.15,227.71Z"/><path class="cls-10" d="M401.17,237.13,174.69,542.61c-.27-1.53-.55-3.09-.84-4.67h0L398.12,235.44Z"/><path class="cls-10" d="M418.08,246.7l-238.69,322c-.27-1.49-.54-3-.84-4.69L415.06,245Z"/><path class="cls-10" d="M434.64,256.73,188.33,589,185,587.67l246.73-332.8Z"/><path class="cls-10" d="M450,268.46,207.81,595.07c-1.2-.3-2.39-.63-3.59-1l243.3-328.18C448.34,266.71,449.15,267.55,450,268.46Z"/><path class="cls-10" d="M461.4,285.39l-232.77,314c-1.28-.19-2.57-.4-3.85-.64L459.53,282.1C460.16,283.17,460.78,284.28,461.4,285.39Z"/><path class="cls-10" d="M402.7,391.12c-.58,1.86-1.61,5.2-3,9.85h0L250.85,601.79c-1.37-.09-2.73-.18-4.11-.3Z"/><path class="cls-10" d="M470.86,305l-61.4,82.82c-1.76.49-3.55,1-5.35,1.4l65.14-87.88C469.79,302.58,470.33,303.8,470.86,305Z"/><path class="cls-10" d="M388.46,442.73c-.71,2.8-1.41,5.7-2.12,8.67h0L274.55,602.2h0c-1.45,0-2.9.06-4.37.07Z"/><path class="cls-10" d="M479.13,326.23,443,375c-2.14,1.06-4.35,2.11-6.65,3.14l41.38-55.82C478.21,323.66,478.68,325,479.13,326.23Z"/><path class="cls-10" d="M377.9,489.35q-.81,3.93-1.61,8h0l-76.43,103.1c-1.55.17-3.1.34-4.68.49Z"/><path class="cls-10" d="M370,532.42c-.39,2.45-.79,4.91-1.17,7.39L327,596.21c-1.63.32-3.31.65-5,1Z"/></g><g id="HANDS"><g id="RIGHT"><path class="cls-7" d="M515,507.3c-2.26,42-81.92,81-123.93,98.7-1.39,8.7-7.1,12.51-18.08,15.34-22.89,5.9-20.74,21-21.92,23.88-1.85,4.59-24.43,9.82-29.86,6-3.23-2.29,5.89-31.05,11.08-41.16,3.23-6.29,24.87-18.2,39.06-23.33,0,0,72-87.27,81.86-92.19,0,0-26.63-73-37.77-99.27-1.59-3.77-2.87-6.57-3.7-8.06,0,0,40-12,67.06-35.3,0,0,2.45,6.11,6.06,16.16C495.73,398.33,517.29,464.39,515,507.3Z"/><path class="cls-11" d="M484.85,368.06c-5.6,5.95-22.62,18.84-69.42,27.2-1.6-3.76-2.88-6.57-3.71-8.06,0,0,40-12,67.07-35.3C478.79,351.9,481.23,358,484.85,368.06Z"/></g><g id="LEFT"><path class="cls-7" d="M226.85,650.21c-6.07,2.68-24.2-2.34-25.86-5s-4-19.2-21.91-24.88c-12.82-4.07-18.64-8.12-18.42-20.77-37.27-12.73-136.38-50.49-140.87-93.36-3-28.6,26.91-110.41,39.4-143,3.27-8.51,5.34-13.67,5.34-13.67,28.81,24,66.2,36.52,66.2,36.52l-3.09,8.47L91.57,493.3c16.42,6.23,76.22,79.67,85.54,91.2,19.43,3.76,40.24,17.27,42.67,24.55C222.33,616.68,233.1,647.44,226.85,650.21Z"/><path class="cls-11" d="M64.54,349.51c28.8,24,66.2,36.52,66.2,36.52l-3.09,8.46c-19.75-3.12-52.19-10.75-68.45-31.32C62.46,354.67,64.54,349.51,64.54,349.51Z"/></g></g><g id="LAPTOP"><path class="cls-12" d="M419.4,677.63H129.85L81.11,486.05A17.53,17.53,0,0,1,98,463.67H451.29a17.53,17.53,0,0,1,16.85,22.38Z"/><path class="cls-8" d="M410.62,675.83h-272l-45.79-180c-3-10.53-5.12-23,5.83-23H450.58c10.95,0,8.86,12.49,5.83,23Z"/><path class="cls-13" d="M291.18,589.74H258.07a5,5,0,0,1-4.84-3.77l-3.95-21.33a2.3,2.3,0,0,1,2.21-2.93h46.27a2.3,2.3,0,0,1,2.21,2.93L296,586A5,5,0,0,1,291.18,589.74Z"/></g><g id="HEAD"><path id="NECK" class="cls-11" d="M318.63,152s-1.64,36,37.7,59c0,0-39,28.4-71.29,64.88,0,0-34.6-42.31-69.65-67.33,0,0,34.41-27.05,34.41-56.54Z"/><path id="HEAD-2" data-name="HEAD" class="cls-7" d="M352.11,132.18c-3.95,5.18-11.08,14.89-14.52,21.86-6.12,33.19-27,55.15-53.47,55.15-22.94,0-38.44-25.72-45.58-49.63,0,0,0,0,0,0a10.89,10.89,0,0,1-.42-1.33c-1.77-6.59-11.36-19.7-16.18-26a4.42,4.42,0,0,1,1.33-6.52c5.88-3.37,8.93-.92,10.53,2.28-.85-23.91.14-49,14.06-49.14,16-.15,69.21-1.2,78.43,1.88,7.93,2.64,13.16,13.75,13.18,49.26,1.25-4,4.25-8.33,11.31-4.28A4.42,4.42,0,0,1,352.11,132.18Z"/><g id="HAIR"><path class="cls-4" d="M361.67,88.67c-10.58,13.3-23.11,44.09-23.11,44.09s4.55-47.66-13.89-47.14c-8.77.24-26.41,12.53-44.88,10.53-15.34-1.66-34.5-22.48-42.39-8.87-4.37,10.43-4.06,26.8-3.4,43.64-4.71-21.55-14.45-35.89-19.8-44.45-11.24-5.83-20.06-18.31-17.52-31C201,34,217.55,35.2,217.55,35.2,245.46,38.09,229.17,21.82,263,6.45s72.31-.82,75.62,17.7c2.28,12.7,10.09,6.34,22.32,12C378.12,44.17,374.1,73,361.67,88.67Z"/><path class="cls-14" d="M260.88,103.08c47.36,6,52.06-19.71,72.45-16.6"/></g></g></g></g></g></g></svg>