<svg xmlns="http://www.w3.org/2000/svg" viewBox="0 0 1047.92 1248.68"><defs><style>.cls-1,.cls-11,.cls-12,.cls-13,.cls-14,.cls-16,.cls-19,.cls-7,.cls-8{fill:none;}.cls-1{stroke:#ffb000;}.cls-1,.cls-11,.cls-12,.cls-13,.cls-14,.cls-16,.cls-19,.cls-2,.cls-7,.cls-8{stroke-miterlimit:10;}.cls-1,.cls-11,.cls-12,.cls-19,.cls-2,.cls-8{stroke-width:6px;}.cls-18,.cls-2{fill:#fff;}.cls-19,.cls-2,.cls-7{stroke:#6562cf;}.cls-3{fill:#ffb819;}.cls-4{fill:#f49c00;}.cls-5{fill:#dbdaff;}.cls-6{fill:#c36f0b;}.cls-12,.cls-13,.cls-14,.cls-16,.cls-7,.cls-8{stroke-linecap:round;}.cls-7{stroke-width:7px;}.cls-8{stroke:#fff;}.cls-9{fill:#3f4d79;}.cls-10{fill:#ffb000;}.cls-11,.cls-12{stroke:#f49c00;}.cls-13,.cls-14{stroke:#b65a18;}.cls-13{stroke-width:4px;}.cls-14,.cls-16{stroke-width:3px;}.cls-15{fill:#b65a18;}.cls-16{stroke:#3f4d79;}.cls-17{fill:#c7bfff;}.cls-20{fill:#e2e2ff;}</style></defs><g id="Layer_2" data-name="Layer 2"><g id="Слой_1" data-name="Слой 1"><g id="_4" data-name="4"><g id="CHAIR"><line class="cls-1" x1="552.95" y1="779.52" x2="552.95" y2="1245.18"/><line class="cls-1" x1="758.69" y1="779.52" x2="758.69" y2="1245.18"/><line class="cls-1" x1="550.96" y1="1170.32" x2="756.17" y2="1170.32"/><rect class="cls-2" x="501.66" y="717.11" width="306.33" height="62.41" rx="16.61"/></g><g id="CHARACTER"><g id="HOOD"><path class="cls-3" d="M753.67,267.52c16.93-4.75,40.34-57.32,14.69-85.79s-80-29.33-126.14-22.42c-42.65,6.39-98.67,31.13-77.32,84.49C595.26,319.67,753.67,267.52,753.67,267.52Z"/><path class="cls-4" d="M728.15,231.72c16-3.38,43.49-30,19.33-50.26s-61.37-22.23-101-15.46-80.7,20.78-61.85,59.19S728.15,231.72,728.15,231.72Z"/></g><g id="LEGS"><g id="RIGHT_FOOT" data-name="RIGHT FOOT"><path class="cls-5" d="M822.58,1240.55c-10.35,6.37-73.65,6-85.6,0s-9.15-26.28-11.14-39.82-30.26-39-31.85-47.77,29.06-27.87,34.38-35.65c-4.38,12.92,39.47,15.75,43,7.38-1.72,30.66,20.81,79.4,39.29,83.8C822.29,1211.27,832.93,1234.18,822.58,1240.55Z"/><path class="cls-6" d="M780.81,1091.16l-9.46,33.53c-3.51,8.37-47.36,5.54-43-7.38s2.71-35.37,2.71-35.37Z"/><path class="cls-7" d="M694,1153c1.6,8.76,29.86,34.24,31.86,47.78s-.8,33.84,11.14,39.81,75.25,6.37,85.6,0"/><path class="cls-8" d="M773.81,1208.45s21-9.38,41.9-2"/></g><g id="LEFT_FOOT" data-name="LEFT FOOT"><path class="cls-5" d="M534.13,1240.55c10.35,6.37,66.65,6,78.6,0s19.15-26.28,21.14-39.82,21.26-44,22.85-52.77-29.06-27.87-34.38-35.65c4.38,12.92-38.47,20.75-42,12.38,1.72,30.66-15.82,79.4-34.29,83.8C534.41,1211.27,523.78,1234.18,534.13,1240.55Z"/><path class="cls-6" d="M558.9,1089.16l21.46,35.53c3.51,8.37,46.36.54,42-12.38s-5.71-33.37-5.71-33.37Z"/><path class="cls-7" d="M656.72,1148c-1.59,8.76-20.86,39.24-22.85,52.78s-9.2,33.84-21.15,39.81-68.24,6.37-78.6,0"/><path class="cls-8" d="M582.9,1208.45s-20.95-9.38-41.9-2"/></g><path id="PANTS" class="cls-9" d="M553.15,582.32s-208.26,102-208.26,164.74c0,111.92,186.27,348,218.26,344.9s63.5-9.87,62.27-23.41S557.2,842.71,505.14,779.86c0,0,19-29.91,137.73-28.6,57.22.63,107.11,4.52,108.34,6.37S689,883.29,721.37,1074.73c2.83,16.68,72.59,23.68,79.35,14.45S915.76,754.87,905.31,729s-119-118.52-171.94-146.71C695.24,562,553.15,582.32,553.15,582.32Z"/></g><g id="HOODY"><path class="cls-10" d="M493.68,258.87C467.27,273.37,427.8,403.4,427.8,403.4s-95.1-116.73-99.5-117.83-29.95,33-29.95,33S348,540.25,425.45,545.18c32.51,2.07,60-16.79,82.57-44.35,10,33.35,19.34,60.85,19.34,60.85,4,14-70.64,52.55-53.61,63.14,0,0,58.11-18.9,160.65,7.54C757,664,816.27,640,804.68,630.8s-29.79-39.11-36.08-59.12L779.91,464s39.58,100.46,99.41,100.46c71.37,0,136.6-218.19,136.6-218.19-25.37-.72-46.39-18.84-46.39-18.84-26.82,18.84-82.64,84.84-82.64,84.84S852.1,307.1,835.43,283.18s-71-42.77-107.28-51.46l-143.52-6.53C575,223.35,516.15,243.52,493.68,258.87Z"/><path class="cls-11" d="M886.89,407.87c-18.15,20.87-34.55,58-34.55,58"/><path class="cls-11" d="M772.88,247.57c-69.68-5.89-139.64,37.94-139.64,37.94s-61.5-13.78-73.8-54.72"/><path class="cls-12" d="M529.36,561.68S490.9,451.2,485.53,404.61"/></g><g id="ARMS"><g id="RIGHT"><path class="cls-6" d="M1013.91,266.67c-.93,5.95-7.4,15.18-1,15.11,3.3,0,27.16-3.89,30.08,4.89a19.16,19.16,0,0,1-.63,12.67c5.23,7.81,1.23,14.19,1.23,14.19,3.16,4.86,4,11.15,1.8,13.92,0,0,5.53,12.75.25,15.71-16.36,9.2-42.45,11.11-55.09,7.84-8.87-2.29-19.51-7.77-22.23-26.65-1.12-7.73,6.58-28,12.46-36.36,2.4-3.44,11.19-17.16,14.16-20.92a44.41,44.41,0,0,0,8.42-18.75S1016.51,250.05,1013.91,266.67Z"/><path class="cls-13" d="M1035.3,285.5c.58,4-23.79,4.84-28,5.76-6,1.3-5.22,14.11,2.56,12.86a162.58,162.58,0,0,0,31.39-4.53"/><path class="cls-13" d="M1042,313.66c-25.78,5.2-32.66,4.72-32.66,4.72-3.76.74-8.6-12.55.52-14.26"/><path class="cls-13" d="M1042.64,327c-24.26,5.33-32.66,4.72-32.66,4.72-3.59.43-8.08-12.21-.75-13.08"/><path class="cls-13" d="M1016.77,331.51s-8.67-.81-8.54,4.59c.24,9.6,4.89,10.63,26.84,6.6"/></g><g id="LEFT"><path id="ARM" class="cls-6" d="M293.59,237.16c.2,6,5.45,15.86-.84,15-3.26-.44-26.31-7.13-30.25,1.16a19,19,0,0,0-.92,12.57c-6.1,7.06-2.94,13.84-2.94,13.84-3.7,4.41-5.29,10.51-3.46,13.51,0,0-7,11.89-2.16,15.45,15,11.06,40.5,16.11,53.36,14.42,9-1.18,20.17-5.29,25.15-23.57,2-7.48-3.09-28.35-7.86-37.35-1.95-3.69-8.95-18.28-11.43-22.35a44.32,44.32,0,0,1-6-19.5S293.05,220.46,293.59,237.16Z"/><g id="FINGERS"><path class="cls-6" d="M263.49,309.55c21.15,6.64,25.86,6.18,27.27-3.25.44-3-2.11-4.37-4.42-5a29.61,29.61,0,0,0,3.23.45c3.22.79,8.67-10.18,3.84-13.21,2-1,4.12-8.17,4.11-14.54,3.73-2.58,4-10.23-.34-11.76-4.09-1.43-28-5.24-27-9.1Z"/><path class="cls-14" d="M263.87,266.3a164.82,164.82,0,0,0,29.22,8.28c7.51,2.17,9.84-10.36,4.09-12.37-4.09-1.43-23.22-7.66-27-9.09"/><path class="cls-14" d="M261.43,280.08c24.78,8.25,30.44,8.62,30.44,8.62,3.61,1.18,10-11.32,1.22-14.12"/><path class="cls-14" d="M258,293.1c23.26,8.21,31.62,8.62,31.62,8.62,3.49.87,8.36-12.24-.2-13.37"/><path class="cls-14" d="M282.89,300.73s8.65.26,7.87,5.57c-1.41,9.43-6.11,9.88-27.26,3.25"/></g></g></g><g id="HEAD"><g id="NECK"><path class="cls-6" d="M697.71,138.21s-15.23,68.14,30.44,93.51c0,0-42,7.25-95.68,51.46,0,0-41.32-34.79-47.84-58,0,0,42-14.49,37.69-87Z"/><path class="cls-15" d="M697.71,138.21H622.32c4.35,72.49-37.69,87-37.69,87s83.83,0,107.54-74.74Z"/></g><path id="HEAD-2" data-name="HEAD" class="cls-6" d="M700.59,137.54s-22.39,43.65-75.89,43.67c-47.72,0-55-140.07,16.07-142,67.72-1.84,59,78.29,59,78.29s12.19-7.09,16.62.29S700.59,137.54,700.59,137.54Z"/><g id="HAIR"><path class="cls-16" d="M669.24,44.44s-.77,24.25-34.34,23.88C605.75,68,589.77,84.5,588.21,96.38"/><path class="cls-9" d="M761.29,92.33c0,26.42-31.89,49.26-67.2,64.76-2.09.92-5.47,1.13-9.75.79a83.17,83.17,0,0,0,16.25-20.34S720.7,125,716.35,117.79s-16.62-.3-16.62-.3,6.11-55.85-31.28-73.2c-.29.54-10,17.66-38.7,18.57C602.45,63.71,595,74.12,591.88,85c-.1.38-.2.75-.29,1.13a122.09,122.09,0,0,0-2.48,44.24l-.16-.06c-2.65-3.22-38.86-49.11-29.41-73.72C569.81,29.84,635.45-7.89,688,1.45,717.35,6.68,761.28,78.44,761.29,92.33Z"/></g></g></g><g id="COMPUTER"><g id="COMPUTER-2" data-name="COMPUTER"><path class="cls-17" d="M523.28,471H120.53a26.41,26.41,0,0,1-25-18L10.17,198.83a18.57,18.57,0,0,1,17.61-24.48H430.53a26.42,26.42,0,0,1,25,18l85.31,254.11A18.57,18.57,0,0,1,523.28,471Z"/><path class="cls-18" d="M514.09,480.91H111.33a26.41,26.41,0,0,1-25-18L1,208.79a18.57,18.57,0,0,1,17.6-24.48H421.34a26.41,26.41,0,0,1,25,18l85.32,254.12A18.57,18.57,0,0,1,514.09,480.91Z"/><path class="cls-19" d="M523.28,470.18H120.53a26.4,26.4,0,0,1-25-18L10.17,198.06a18.57,18.57,0,0,1,17.61-24.48H430.53a26.42,26.42,0,0,1,25,18L540.88,445.7A18.57,18.57,0,0,1,523.28,470.18Z"/><path class="cls-20" d="M349.08,390.53l30.64,76.25H313.5S326.37,407.13,349.08,390.53Z"/><path class="cls-2" d="M393.12,562.41c-130.39,0-75.56-139.53-49.63-168.51H243.14c-25.92,29-96.07,176.17,34.31,176.17H393.12Z"/><ellipse class="cls-20" cx="262.13" cy="314.61" rx="19.06" ry="24.01" transform="translate(-143.83 368.32) rotate(-57.74)"/><ellipse class="cls-19" cx="268.54" cy="309.21" rx="19.06" ry="24.01" transform="translate(-136.28 371.22) rotate(-57.74)"/></g><g id="TABLE"><path class="cls-18" d="M93.75,570.07H690.92c8.78,0,15.9,6.64,15.9,14.84h0c0,8.19-7.12,14.83-15.9,14.83H93.75Z"/><path class="cls-19" d="M93.75,570.07H690.92c8.78,0,15.9,6.64,15.9,14.84h0c0,8.19-7.12,14.83-15.9,14.83H93.75"/></g></g></g></g></g></svg>