<svg id="Vector" xmlns="http://www.w3.org/2000/svg" viewBox="0 0 1200 1200"><defs><style>.cls-1{fill:#f3f3f3;}.cls-2{fill:#d0cbcb;}.cls-3{fill:#dfdfdf;}.cls-4{fill:none;stroke:#dfdfdf;stroke-miterlimit:10;stroke-width:6px;stroke-dasharray:18;}.cls-5{fill:#56cad8;}.cls-6{fill:#74d5de;}.cls-7{fill:#fed385;}.cls-8{fill:#de8e68;}.cls-9{fill:#fed892;}.cls-10{fill:#d37c59;}</style></defs><title>Artboard 1</title><rect class="cls-1" x="129.23" y="214.94" width="524.4" height="621.1"/><path class="cls-2" d="M410,603.92,556.6,517.31l-10.71-40.57H419.14v-3.23c0-.06,0-.11,0-.17v-8.85a3.39,3.39,0,0,0-3.39-3.39H383.32a3.39,3.39,0,0,0-3.39,3.39v12.25l20.88,127.18Z"/><rect class="cls-3" x="400.23" y="485.99" width="178.21" height="126.19" rx="12.04" ry="12.04"/><polyline class="cls-4" points="129.23 485.99 299.48 485.99 299.48 612.18 129.23 612.18"/><path class="cls-5" d="M766,823.22c-15.32,0-144.73,163.51-144.73,185.51H762.45s56-41.92,64.21-56.84S766,823.22,766,823.22Z"/><path class="cls-6" d="M916.77,791c1.83,12,35.51,217.74,35.51,217.74H836s-64.25-127.89-70-185.51C797,803.48,916.77,791,916.77,791Z"/><path class="cls-7" d="M824.83,539.21c77.33-2.58,98,238.89,91.94,251.78-7.2,15.45-118.7,46-150.81,32.23C749.92,816.35,695.48,543.52,824.83,539.21Z"/><path class="cls-7" d="M824.83,539.21c77.33-2.58,101.4,237.61,91.94,251.78S779.71,834,766,823.22,695.48,543.52,824.83,539.21Z"/><path class="cls-8" d="M753.73,611.36c-5.91,0-36.21,8.68-61,23.09-62.26-56.72-77.6-109.93-110.85-109-15.71,0-29.75,2.21-29.75,14.59s14.6,22,37.88,22c3.88,15.7,56,136.9,93.3,136.9,25.86,0,98.66-28.82,98.66-35.29S758.65,611.36,753.73,611.36Z"/><path class="cls-9" d="M830.47,590.69c12.09,15-41.23,87.51-53.38,87.11s-54.69-52.67-50.64-67.66S812.17,568,830.47,590.69Z"/><path class="cls-10" d="M839.23,483c0,2.33.92,53.47,7.73,68.74,0,4.45-48.89,7.36-48.89-1.11V513.41"/><ellipse class="cls-8" cx="799.23" cy="457.44" rx="40" ry="60.5"/><path d="M833.8,486.18h-1v-29c-3-4-32-13-39-16s-19-7-27-19c-1.83,2.75-6.14,16.49-7.28,27.95-3-3-7.72-7.95-7.72-23.95,0-29,29-46,54-46,40,0,63,41,63,59C868.8,465.18,850.8,486.18,833.8,486.18Z"/><circle class="cls-8" cx="830.47" cy="467.28" r="10.75"/><path d="M893.77,330.83c6.46,0,57.65,17.24,71.12,17.24s40.14-3.23,48.77-3.23c16.94,0,57.11,19.5,57.11,53.61,0,23.77-18.4,36.94-39.06,47.42-8.05,4.07-15.19,21.41-43.92,21.41-46.32,0-73.11-65.06-114.77-65.06-4.85,0-20.5,2.14-20.5,8s-10-2.92-10-5.67C842.56,381.17,856.81,330.83,893.77,330.83Z"/><rect class="cls-3" x="129.23" y="214.94" width="524.4" height="51.76"/></svg>