<svg xmlns="http://www.w3.org/2000/svg" viewBox="0 0 801.71 774.33"><defs><style>.cls-1{fill:#f3f3f3;}.cls-1,.cls-10,.cls-11,.cls-4,.cls-5,.cls-6,.cls-7,.cls-8,.cls-9{fill-rule:evenodd;}.cls-2,.cls-3{fill:none;stroke-linecap:round;}.cls-2{stroke:#fff;stroke-linejoin:round;stroke-width:12.98px;}.cls-3{stroke:#dfdfdf;stroke-width:2.93px;}.cls-4{fill:#e49d75;}.cls-6{fill:#e0e0e0;}.cls-12,.cls-7{fill:#a4a4a4;}.cls-8{fill:#5fc5d1;}.cls-9{fill:#6bd5e1;}.cls-10{fill:#ffd98e;}.cls-11{fill:#ffe4ad;}</style></defs><title>calendar-colour</title><g id="Layer_2" data-name="Layer 2"><g id="Layer_1-2" data-name="Layer 1"><path class="cls-1" d="M0,.29H801.71V540.67H0Z"/><path class="cls-2" d="M454.16,112.56h94"/><path class="cls-2" d="M454.16,143.29h83.7"/><path class="cls-3" d="M200.09,541.84V1.47"/><path class="cls-3" d="M400.18,541.84V1.47"/><path class="cls-3" d="M600.27,541.84V1.47"/><path class="cls-4" d="M350.39,742.82l1.77,20.78,18.22.44-3.38-22Z"/><path class="cls-4" d="M184.36,705.77l-8.46,28.56,8.64,9,15.33-25Z"/><path class="cls-5" d="M349.06,758.93l-.33,15.4,47.76-.29c.33.22.09-7.55.09-7.55l-28.42-7.78Z"/><path class="cls-5" d="M175.25,729.44l-9.7,13.23,20.28,28.72,19.16.13-.26-9.7-7.68-3.4-6.81-16.89Z"/><path class="cls-6" d="M367.05,146.61h93.3v93.3h-93.3Z"/><path class="cls-7" d="M367.05,146.61h93.3v20.84h-93.3Z"/><path class="cls-4" d="M259.73,257.67c4.86-1.07,22.16-.61,26.79-3.09s61.78-45.3,67.53-51.13,12.86-10.89,18-17.23.17,11.23-4.32,14.69c-.52,4.7-.65,14.54-.65,14.54a8.57,8.57,0,0,0-6.79,1.71c-3.24,2.54-50.1,57.69-50.1,57.69S254.87,258.75,259.73,257.67Z"/><path class="cls-8" d="M217.28,422.43c-2.9,11-8.49,88,8.7,126.52-7.46,28.17-45.35,159.45-45.35,159.45L199.47,725l97.12-147S276.37,417.19,217.28,422.43Z"/><path class="cls-9" d="M316.44,417.67C320.37,428.6,360.53,572,360.53,572l9.08,174.19-20.78,1.64L284.28,572.43c-7.88-8.93-57.94-128.79-60.19-144.17C233.93,417.8,312.51,406.73,316.44,417.67Z"/><path class="cls-10" d="M244.18,250.72c7.91,0,52.71,10.86,61.13,28.36,4.63,9.62,24.94,127.23,13.66,145.72s-89,17.7-104.16,3.76C206.28,420.74,203.53,250.66,244.18,250.72Z"/><path class="cls-6" d="M0,.29H801.71V72.63H0Z"/><path class="cls-2" d="M37.15,115H161.59"/><path class="cls-4" d="M234.26,230.7h17.16V264c-6.17,4.91-17.16,0-17.16,0Z"/><path class="cls-4" d="M212.31,200.6c0-20.75,14.09-37.57,31.48-37.57s31.47,16.82,31.47,37.57-14.09,37.58-31.47,37.58S212.31,221.35,212.31,200.6Z"/><path class="cls-5" d="M240,156.85c10.08-.23,22.89,6.18,22.89,10.63,0,7.7-11.94,25.16-20.83,32.32,2.49,5.75,4.77,9.55,4.77,14.43s-7.59,24-7.59,37c0,10.2,2.28,17.14,2.28,25.6,0,23.11-15.08,37.1-36.89,37.1s-36.46-23.65-36.55-42.85c-.11-23.54,26-52.43,32.33-70.18C205.74,185.92,215.83,156.85,240,156.85Z"/><path class="cls-4" d="M233.34,202.54a7.88,7.88,0,1,1,7.87,7.88A7.87,7.87,0,0,1,233.34,202.54Z"/><path class="cls-4" d="M318.11,314.65c8.84,2.1,45.05,8.17,52,6s78.55-70.45,84.13-75.5,16.78-12.2,18.13-20.94,0-16.22-12.14-20.6c.23,5.64.45,14.44.21,13.13-2.05-6.8-2.29-14.51-6-14.42-2,6.36.82,18.35-4.1,26.38-5.65,6.14-80.69,55.38-88.57,57.87-10.28,0-36.64-9-36.64-9S309.28,312.55,318.11,314.65Z"/><path class="cls-11" d="M259.34,279.38c6.12-25.7,59.81-12.11,68.84-4.9,3.16,9.79-1.81,38.83-9.7,44.22C306.63,320.42,252.82,306.72,259.34,279.38Z"/><path class="cls-2" d="M37.15,169.71h94"/><path class="cls-2" d="M37.15,263.7H88.1"/><path class="cls-2" d="M37.15,299.16h94"/><path class="cls-2" d="M37.15,329.89h83.7"/><path class="cls-2" d="M634.81,110.64H759.25"/><path class="cls-2" d="M634.81,144.73h87"/><path class="cls-2" d="M634.81,181H751.67"/><path class="cls-2" d="M634.81,214h58.9"/><path class="cls-12" d="M397,188.69h-.12L390.62,192l-.94-3.68,7.82-4.18h4.12v35.76H397Z"/><path class="cls-12" d="M437.89,184.18v3.19l-15.58,32.57h-5l15.51-31.64v-.11H415.33v-4Z"/></g></g></svg>